<svg xmlns="http://www.w3.org/2000/svg" viewBox="0 0 512 512">
  <!-- Background Circle -->
  <circle cx="256" cy="256" r="240" fill="url(#gradient)" stroke="#1e3a8a" stroke-width="8"/>
  
  <!-- Graduation Cap -->
  <g transform="translate(256, 256)">
    <!-- Cap Base -->
    <rect x="-80" y="-35" width="160" height="18" fill="#1e3a8a" rx="4"/>
    
    <!-- Cap Top -->
    <path d="M-80,-35 L-70,-60 L70,-60 L80,-35 Z" fill="#3b82f6"/>
    
    <!-- Tassel -->
    <line x1="55" y1="-45" x2="75" y2="-70" stroke="#ffd700" stroke-width="4"/>
    <circle cx="75" cy="-70" r="4" fill="#ffd700"/>
    
    <!-- Cap Button -->
    <circle cx="0" cy="-45" r="6" fill="#1e3a8a"/>
  </g>
  
  <!-- Diploma Scroll -->
  <g transform="translate(256, 300)">
    <rect x="-60" y="-12" width="120" height="20" fill="#f8f9fa" stroke="#1e3a8a" stroke-width="2" rx="2"/>
    <rect x="-50" y="-8" width="100" height="8" fill="#1e3a8a" opacity="0.3"/>
  </g>
  
  <!-- Books -->
  <g transform="translate(256, 340)">
    <rect x="-50" y="-8" width="20" height="15" fill="#4caf50" rx="2"/>
    <rect x="-25" y="-8" width="20" height="15" fill="#ff9800" rx="2"/>
    <rect x="0" y="-8" width="20" height="15" fill="#e91e63" rx="2"/>
    <rect x="25" y="-8" width="20" height="15" fill="#9c27b0" rx="2"/>
  </g>
  
  <!-- Stars for Achievement -->
  <g transform="translate(256, 256)">
    <polygon points="0,-100 5,-90 15,-90 8,-85 12,-75 0,-80 -12,-75 -8,-85 -15,-90 -5,-90" fill="#ffd700"/>
    <polygon points="-80,-50 5,-40 15,-40 8,-35 12,-25 0,-30 -12,-25 -8,-35 -15,-40 -5,-40" fill="#ffd700" opacity="0.7"/>
    <polygon points="80,-50 5,-40 15,-40 8,-35 12,-25 0,-30 -12,-25 -8,-35 -15,-40 -5,-40" fill="#ffd700" opacity="0.7"/>
  </g>
  
  <!-- Gradient Definition -->
  <defs>
    <linearGradient id="gradient" x1="0%" y1="0%" x2="100%" y2="100%">
      <stop offset="0%" style="stop-color:#1e3a8a;stop-opacity:1" />
      <stop offset="50%" style="stop-color:#3b82f6;stop-opacity:1" />
      <stop offset="100%" style="stop-color:#60a5fa;stop-opacity:1" />
    </linearGradient>
  </defs>
</svg>